Coordinates
version=1
nRows=22
nColumns=24
inDegrees=yes

Units are S.I. units (second, meters, Newtons, ...)
Angles are in degrees.

endheader
time	pelvis_tilt	pelvis_list	pelvis_rotation	pelvis_tx	pelvis_ty	pelvis_tz	hip_flexion_r	hip_adduction_r	hip_rotation_r	knee_angle_r	ankle_angle_r	subtalar_angle_r	mtp_angle_r	hip_flexion_l	hip_adduction_l	hip_rotation_l	knee_angle_l	ankle_angle_l	subtalar_angle_l	mtp_angle_l	lumbar_extension	lumbar_bending	lumbar_rotation
      0.01000000	     64.42093158	      3.06070914	     -2.84452258	      0.55146395	      1.00032469	     -0.29442238	      5.89532964	    -10.11688401	     13.94043760	      4.47814046	    -23.58377103	      3.71162883	    -19.31172680	     -7.88917602	     -6.55705839	      1.58466057	    -52.58223206	     -3.44123037	      9.43012441	    -33.46195481	      0.00000000	      0.00000000	      0.00000000
      0.02000000	     64.41919865	      3.06383512	     -2.86682623	      0.55145948	      1.00031073	     -0.29445631	      5.91086100	    -10.12585346	     13.93910976	      4.47841849	    -23.58186202	      3.71796660	    -19.31360279	     -7.88358336	     -6.53882698	      1.56226327	    -52.67253939	     -3.12341287	      9.30505460	    -33.15229052	      0.00000000	      0.00000000	      0.00000000
      0.03000000	     64.42215526	      3.06441196	     -2.87858522	      0.55144929	      1.00030290	     -0.29448636	      5.91582568	    -10.13567850	     13.93517980	      4.47899133	    -23.58247751	      3.72226950	    -19.32037180	     -7.89055681	     -6.51554328	      1.56554373	    -52.73535386	     -2.93695894	      9.27775436	    -32.80694630	      0.00000000	      0.00000000	      0.00000000
      0.04000000	     64.43176604	      3.06406431	     -2.88191141	      0.55145093	      1.00030401	     -0.29451497	      5.91073888	    -10.14821993	     13.92792945	      4.47865189	    -23.58455019	      3.72527625	    -19.33137106	     -7.90644535	     -6.48985607	      1.58589044	    -52.78096236	     -2.84583424	      9.32053039	    -32.42341684	      0.00000000	      0.00000000	      0.00000000
      0.05000000	     64.44933273	      3.06518833	     -2.87951766	      0.55145688	      1.00031047	     -0.29453819	      5.89673010	    -10.16459099	     13.91724168	      4.47644821	    -23.58697645	      3.72794599	    -19.34551429	     -7.92766976	     -6.46520583	      1.61401257	    -52.81969982	     -2.81030293	      9.40126844	    -32.00551168	      0.00000000	      0.00000000	      0.00000000
      0.06000000	     64.47473778	      3.06991010	     -2.87425922	      0.55142968	      1.00031013	     -0.29454848	      5.87555891	    -10.18431006	     13.90394940	      4.47243515	    -23.58895287	      3.73125633	    -19.36135133	     -7.95161652	     -6.44465135	      1.64238990	    -52.85811557	     -2.79779873	      9.49169081	    -31.56597332	      0.00000000	      0.00000000	      0.00000000
      0.07000000	     64.50713095	      3.07814968	     -2.86865878	      0.55135549	      1.00029208	     -0.29453882	      5.84926977	    -10.20554844	     13.88953633	      4.46796112	    -23.59011165	      3.73593955	    -19.37718270	     -7.97608586	     -6.42931283	      1.66602229	    -52.89692448	     -2.78844919	      9.57232071	    -31.12576734	      0.00000000	      0.00000000	      0.00000000
      0.08000000	     64.54410328	      3.08693540	     -2.86431372	      0.55126507	      1.00025708	     -0.29450721	      5.81961893	    -10.22627881	     13.87541416	      4.46523511	    -23.59051518	      3.74218110	    -19.39121476	     -8.00049719	     -6.41765958	      1.68238037	    -52.93257872	     -2.77531960	      9.63377438	    -30.71090480	      0.00000000	      0.00000000	      0.00000000
      0.09000000	     64.58150207	      3.09290541	     -2.86197682	      0.55120960	      1.00022555	     -0.29447380	      5.78742022	    -10.24555050	     13.86223513	      4.46625984	    -23.59057767	      3.74939525	    -19.40174343	     -8.02704590	     -6.40711758	      1.69161158	    -52.96065326	     -2.76071904	      9.67498406	    -30.34788498	      0.00000000	      0.00000000	      0.00000000
      0.10000000	     64.61639771	      3.09569019	     -2.86166505	      0.55120309	      1.00022132	     -0.29446763	      5.75209730	    -10.26411023	     13.84961745	      4.47169763	    -23.59092932	      3.75619929	    -19.40735513	     -8.05905883	     -6.39615026	      1.69643727	    -52.97804442	     -2.75103306	      9.69993959	    -30.05897219	      0.00000000	      0.00000000	      0.00000000
      0.11000000	     64.64991131	      3.09816369	     -2.86195051	      0.55120537	      1.00024657	     -0.29448730	      5.71194449	    -10.28405019	     13.83639241	      4.48046035	    -23.59221193	      3.76065572	    -19.40712341	     -8.09873239	     -6.38407104	      1.70082665	    -52.98381415	     -2.75233975	      9.71455757	    -29.85839611	      0.00000000	      0.00000000	      0.00000000
      0.12000000	     64.68701152	      3.10408062	     -2.85997211	      0.55120026	      1.00029148	     -0.29450955	      5.66516764	    -10.30769336	     13.82124476	      4.49032104	    -23.59486029	      3.76078128	    -19.40077185	     -8.14625189	     -6.36994621	      1.70833226	    -52.97919930	     -2.76772040	      9.72439233	    -29.75018222	      0.00000000	      0.00000000	      0.00000000
      0.13000000	     64.73352208	      3.11641223	     -2.85291747	      0.55118584	      1.00033178	     -0.29451027	      5.61108457	    -10.33633534	     13.80346150	      4.49906217	    -23.59897862	      3.75520366	    -19.38877490	     -8.20022872	     -6.35294287	      1.72127176	    -52.96702489	     -2.79619423	      9.73325056	    -29.72787592	      0.00000000	      0.00000000	      0.00000000
      0.14000000	     64.79216191	      3.13630556	     -2.83994591	      0.55111435	      1.00032637	     -0.29447141	      5.55081137	    -10.36953039	     13.78343779	      4.50540406	    -23.60435895	      3.74371249	    -19.37236262	     -8.25851533	     -6.33340427	      1.74049106	    -52.95081056	     -2.83296212	      9.74262286	    -29.77603980	      0.00000000	      0.00000000	      0.00000000
      0.15000000	     64.85980142	      3.16161561	     -2.82311603	      0.55097269	      1.00026848	     -0.29440803	      5.48729226	    -10.40509917	     13.76271716	      4.50929078	    -23.61059924	      3.72744510	    -19.35339900	     -8.31872764	     -6.31291891	      1.76507624	    -52.93402972	     -2.87056436	      9.75177858	    -29.87309676	      0.00000000	      0.00000000	      0.00000000
      0.16000000	     64.92815638	      3.18700245	     -2.80609417	      0.55083250	      1.00020381	     -0.29436068	      5.42494128	    -10.43959624	     13.74356842	      4.51159159	    -23.61725620	      3.70861676	    -19.33413271	     -8.37816313	     -6.29334624	      1.79221039	    -52.91969700	     -2.90053960	      9.75836775	    -29.99489653	      0.00000000	      0.00000000	      0.00000000
      0.17000000	     64.98788412	      3.20678710	     -2.79181512	      0.55075482	      1.00017256	     -0.29434629	      5.36893861	    -10.46914336	     13.72823088	      4.51347262	    -23.62399145	      3.68992711	    -19.31686328	     -8.43320338	     -6.27611974	      1.81783893	    -52.91007569	     -2.91525411	      9.75939268	    -30.11832827	      0.00000000	      0.00000000	      0.00000000
      0.18000000	     65.03285466	      3.21820377	     -2.78152160	      0.55073384	      1.00017279	     -0.29435127	      5.32405548	    -10.49067090	     13.71806731	      4.51572707	    -23.63068457	      3.67389479	    -19.30360004	     -8.47915401	     -6.26249065	      1.83815156	    -52.90651300	     -2.90962713	      9.75235640	    -30.22437463	      0.00000000	      0.00000000	      0.00000000
      0.19000000	     65.06168316	      3.22223059	     -2.77533936	      0.55073709	      1.00018452	     -0.29436337	      5.29332554	    -10.50323160	     13.71299309	      4.51837719	    -23.63747840	      3.66234446	    -19.29579654	     -8.51137026	     -6.25387696	      1.85097095	    -52.90952804	     -2.88248498	      9.73634814	    -30.30016200	      0.00000000	      0.00000000	      0.00000000
      0.20000000	     65.07647814	      3.22171037	     -2.77288431	      0.55074419	      1.00019662	     -0.29437979	      5.27723384	    -10.50852794	     13.71151003	      4.52076256	    -23.64471428	      3.65615144	    -19.29421357	     -8.52725177	     -6.25131492	      1.85620614	    -52.91892549	     -2.83729085	      9.71282710	    -30.33978202	      0.00000000	      0.00000000	      0.00000000
      0.21000000	     65.08069597	      3.21904592	     -2.77325546	      0.55074798	      1.00020656	     -0.29439311	      5.27378050	    -10.50995995	     13.71141790	      4.52202872	    -23.65274310	      3.65521215	    -19.29891212	     -8.52770629	     -6.25443553	      1.85541803	    -52.93362607	     -2.78193258	      9.68579759	    -30.34390322	      0.00000000	      0.00000000	      0.00000000
      0.22000000	     65.07778804	      3.21565048	     -2.77491447	      0.55074680	      1.00021113	     -0.29439472	      5.27923401	    -10.51058431	     13.71089453	      4.52166486	    -23.66166490	      3.65855229	    -19.30934215	     -8.51701805	     -6.26116017	      1.85107441	    -52.95134503	     -2.72731982	      9.66112224	    -30.31841495	      0.00000000	      0.00000000	      0.00000000
